<svg xmlns="http://www.w3.org/2000/svg" xmlns:xlink="http://www.w3.org/1999/xlink" width="200" zoomAndPan="magnify" viewBox="0 0 150 44.999999" height="60" preserveAspectRatio="xMidYMid meet" version="1.0"><defs><clipPath id="0c96695e82"><path d="M 0 2.589844 L 32 2.589844 L 32 42.339844 L 0 42.339844 Z M 0 2.589844 " clip-rule="nonzero"/></clipPath><clipPath id="ef1b324705"><path d="M 0.25 2.589844 L 0.25 42.339844 L 23.738281 42.339844 L 16.777344 37.671875 L 31.960938 24.75 L 5.441406 2.589844 Z M 0.25 2.589844 " clip-rule="nonzero"/></clipPath><linearGradient x1="-0.00000000581724" gradientTransform="matrix(0.884635, 0, 0, 0.883333, 0.248309, 2.590908)" y1="22.502001" x2="35.849699" gradientUnits="userSpaceOnUse" y2="22.502001" id="8f45d028f1"><stop stop-opacity="1" stop-color="rgb(0%, 67.799377%, 93.299866%)" offset="0"/><stop stop-opacity="1" stop-color="rgb(0.0717163%, 67.602539%, 93.151855%)" offset="0.00390625"/><stop stop-opacity="1" stop-color="rgb(0.144958%, 67.405701%, 93.005371%)" offset="0.0078125"/><stop stop-opacity="1" stop-color="rgb(0.216675%, 67.208862%, 92.857361%)" offset="0.0117188"/><stop stop-opacity="1" stop-color="rgb(0.289917%, 67.01355%, 92.710876%)" offset="0.015625"/><stop stop-opacity="1" stop-color="rgb(0.363159%, 66.816711%, 92.562866%)" offset="0.0195312"/><stop stop-opacity="1" stop-color="rgb(0.436401%, 66.619873%, 92.416382%)" offset="0.0234375"/><stop stop-opacity="1" stop-color="rgb(0.508118%, 66.423035%, 92.268372%)" offset="0.0273438"/><stop stop-opacity="1" stop-color="rgb(0.58136%, 66.226196%, 92.121887%)" offset="0.03125"/><stop stop-opacity="1" stop-color="rgb(0.654602%, 66.029358%, 91.973877%)" offset="0.0351563"/><stop stop-opacity="1" stop-color="rgb(0.727844%, 65.834045%, 91.827393%)" offset="0.0390625"/><stop stop-opacity="1" stop-color="rgb(0.799561%, 65.637207%, 91.679382%)" offset="0.0429688"/><stop stop-opacity="1" stop-color="rgb(0.872803%, 65.440369%, 91.532898%)" offset="0.046875"/><stop stop-opacity="1" stop-color="rgb(0.944519%, 65.24353%, 91.384888%)" offset="0.0507812"/><stop stop-opacity="1" stop-color="rgb(1.017761%, 65.048218%, 91.238403%)" offset="0.0546875"/><stop stop-opacity="1" stop-color="rgb(1.091003%, 64.851379%, 91.090393%)" offset="0.0585938"/><stop stop-opacity="1" stop-color="rgb(1.164246%, 64.654541%, 90.943909%)" offset="0.0625"/><stop stop-opacity="1" stop-color="rgb(1.235962%, 64.457703%, 90.795898%)" offset="0.0664062"/><stop stop-opacity="1" stop-color="rgb(1.309204%, 64.260864%, 90.649414%)" offset="0.0703125"/><stop stop-opacity="1" stop-color="rgb(1.382446%, 64.064026%, 90.501404%)" offset="0.0742187"/><stop stop-opacity="1" stop-color="rgb(1.455688%, 63.868713%, 90.354919%)" offset="0.078125"/><stop stop-opacity="1" stop-color="rgb(1.527405%, 63.671875%, 90.206909%)" offset="0.0820313"/><stop stop-opacity="1" stop-color="rgb(1.600647%, 63.475037%, 90.060425%)" offset="0.0859375"/><stop stop-opacity="1" stop-color="rgb(1.672363%, 63.278198%, 89.912415%)" offset="0.0898438"/><stop stop-opacity="1" stop-color="rgb(1.745605%, 63.082886%, 89.76593%)" offset="0.09375"/><stop stop-opacity="1" stop-color="rgb(1.818848%, 62.886047%, 89.61792%)" offset="0.0976562"/><stop stop-opacity="1" stop-color="rgb(1.89209%, 62.689209%, 89.471436%)" offset="0.101562"/><stop stop-opacity="1" stop-color="rgb(1.963806%, 62.492371%, 89.323425%)" offset="0.105469"/><stop stop-opacity="1" stop-color="rgb(2.037048%, 62.295532%, 89.176941%)" offset="0.109375"/><stop stop-opacity="1" stop-color="rgb(2.110291%, 62.098694%, 89.030457%)" offset="0.113281"/><stop stop-opacity="1" stop-color="rgb(2.183533%, 61.903381%, 88.883972%)" offset="0.117188"/><stop stop-opacity="1" stop-color="rgb(2.255249%, 61.706543%, 88.735962%)" offset="0.121094"/><stop stop-opacity="1" stop-color="rgb(2.328491%, 61.509705%, 88.589478%)" offset="0.125"/><stop stop-opacity="1" stop-color="rgb(2.400208%, 61.312866%, 88.441467%)" offset="0.128906"/><stop stop-opacity="1" stop-color="rgb(2.47345%, 61.117554%, 88.294983%)" offset="0.132813"/><stop stop-opacity="1" stop-color="rgb(2.546692%, 60.920715%, 88.146973%)" offset="0.136719"/><stop stop-opacity="1" stop-color="rgb(2.619934%, 60.723877%, 88.000488%)" offset="0.140625"/><stop stop-opacity="1" stop-color="rgb(2.69165%, 60.527039%, 87.852478%)" offset="0.144531"/><stop stop-opacity="1" stop-color="rgb(2.764893%, 60.3302%, 87.705994%)" offset="0.148438"/><stop stop-opacity="1" stop-color="rgb(2.838135%, 60.133362%, 87.557983%)" offset="0.152344"/><stop stop-opacity="1" stop-color="rgb(2.911377%, 59.938049%, 87.411499%)" offset="0.15625"/><stop stop-opacity="1" stop-color="rgb(2.983093%, 59.741211%, 87.263489%)" offset="0.160156"/><stop stop-opacity="1" stop-color="rgb(3.056335%, 59.544373%, 87.117004%)" offset="0.164063"/><stop stop-opacity="1" stop-color="rgb(3.128052%, 59.347534%, 86.968994%)" offset="0.167969"/><stop stop-opacity="1" stop-color="rgb(3.201294%, 59.152222%, 86.82251%)" offset="0.171875"/><stop stop-opacity="1" stop-color="rgb(3.274536%, 58.955383%, 86.6745%)" offset="0.175781"/><stop stop-opacity="1" stop-color="rgb(3.347778%, 58.758545%, 86.528015%)" offset="0.179688"/><stop stop-opacity="1" stop-color="rgb(3.419495%, 58.561707%, 86.380005%)" offset="0.183594"/><stop stop-opacity="1" stop-color="rgb(3.492737%, 58.364868%, 86.233521%)" offset="0.1875"/><stop stop-opacity="1" stop-color="rgb(3.565979%, 58.16803%, 86.08551%)" offset="0.191406"/><stop stop-opacity="1" stop-color="rgb(3.639221%, 57.972717%, 85.939026%)" offset="0.195313"/><stop stop-opacity="1" stop-color="rgb(3.710938%, 57.775879%, 85.791016%)" offset="0.199219"/><stop stop-opacity="1" stop-color="rgb(3.78418%, 57.579041%, 85.644531%)" offset="0.203125"/><stop stop-opacity="1" stop-color="rgb(3.857422%, 57.382202%, 85.496521%)" offset="0.207031"/><stop stop-opacity="1" stop-color="rgb(3.930664%, 57.18689%, 85.350037%)" offset="0.210938"/><stop stop-opacity="1" stop-color="rgb(4.00238%, 56.990051%, 85.202026%)" offset="0.214844"/><stop stop-opacity="1" stop-color="rgb(4.075623%, 56.793213%, 85.055542%)" offset="0.21875"/><stop stop-opacity="1" stop-color="rgb(4.147339%, 56.596375%, 84.907532%)" offset="0.222656"/><stop stop-opacity="1" stop-color="rgb(4.220581%, 56.399536%, 84.761047%)" offset="0.226563"/><stop stop-opacity="1" stop-color="rgb(4.293823%, 56.202698%, 84.613037%)" offset="0.230469"/><stop stop-opacity="1" stop-color="rgb(4.367065%, 56.007385%, 84.466553%)" offset="0.234375"/><stop stop-opacity="1" stop-color="rgb(4.438782%, 55.810547%, 84.320068%)" offset="0.238281"/><stop stop-opacity="1" stop-color="rgb(4.512024%, 55.613708%, 84.173584%)" offset="0.242188"/><stop stop-opacity="1" stop-color="rgb(4.585266%, 55.41687%, 84.025574%)" offset="0.246094"/><stop stop-opacity="1" stop-color="rgb(4.658508%, 55.221558%, 83.879089%)" offset="0.25"/><stop stop-opacity="1" stop-color="rgb(4.730225%, 55.024719%, 83.731079%)" offset="0.253906"/><stop stop-opacity="1" stop-color="rgb(4.803467%, 54.827881%, 83.584595%)" offset="0.257813"/><stop stop-opacity="1" stop-color="rgb(4.875183%, 54.631042%, 83.436584%)" offset="0.261719"/><stop stop-opacity="1" stop-color="rgb(4.948425%, 54.434204%, 83.2901%)" offset="0.265625"/><stop stop-opacity="1" stop-color="rgb(5.021667%, 54.237366%, 83.14209%)" offset="0.269531"/><stop stop-opacity="1" stop-color="rgb(5.09491%, 54.042053%, 82.995605%)" offset="0.273438"/><stop stop-opacity="1" stop-color="rgb(5.166626%, 53.845215%, 82.847595%)" offset="0.277344"/><stop stop-opacity="1" stop-color="rgb(5.239868%, 53.648376%, 82.701111%)" offset="0.28125"/><stop stop-opacity="1" stop-color="rgb(5.31311%, 53.451538%, 82.553101%)" offset="0.285156"/><stop stop-opacity="1" stop-color="rgb(5.386353%, 53.256226%, 82.406616%)" offset="0.289063"/><stop stop-opacity="1" stop-color="rgb(5.458069%, 53.059387%, 82.258606%)" offset="0.292969"/><stop stop-opacity="1" stop-color="rgb(5.531311%, 52.862549%, 82.112122%)" offset="0.296875"/><stop stop-opacity="1" stop-color="rgb(5.603027%, 52.66571%, 81.964111%)" offset="0.300781"/><stop stop-opacity="1" stop-color="rgb(5.67627%, 52.468872%, 81.817627%)" offset="0.304688"/><stop stop-opacity="1" stop-color="rgb(5.749512%, 52.272034%, 81.669617%)" offset="0.308594"/><stop stop-opacity="1" stop-color="rgb(5.822754%, 52.076721%, 81.523132%)" offset="0.3125"/><stop stop-opacity="1" stop-color="rgb(5.89447%, 51.879883%, 81.375122%)" offset="0.316406"/><stop stop-opacity="1" stop-color="rgb(5.967712%, 51.683044%, 81.228638%)" offset="0.320313"/><stop stop-opacity="1" stop-color="rgb(6.040955%, 51.486206%, 81.080627%)" offset="0.324219"/><stop stop-opacity="1" stop-color="rgb(6.114197%, 51.290894%, 80.934143%)" offset="0.328125"/><stop stop-opacity="1" stop-color="rgb(6.185913%, 51.094055%, 80.786133%)" offset="0.332031"/><stop stop-opacity="1" stop-color="rgb(6.259155%, 50.897217%, 80.639648%)" offset="0.335938"/><stop stop-opacity="1" stop-color="rgb(6.330872%, 50.700378%, 80.491638%)" offset="0.339844"/><stop stop-opacity="1" stop-color="rgb(6.404114%, 50.50354%, 80.345154%)" offset="0.34375"/><stop stop-opacity="1" stop-color="rgb(6.477356%, 50.306702%, 80.197144%)" offset="0.347656"/><stop stop-opacity="1" stop-color="rgb(6.550598%, 50.111389%, 80.050659%)" offset="0.351563"/><stop stop-opacity="1" stop-color="rgb(6.622314%, 49.914551%, 79.904175%)" offset="0.355469"/><stop stop-opacity="1" stop-color="rgb(6.695557%, 49.717712%, 79.75769%)" offset="0.359375"/><stop stop-opacity="1" stop-color="rgb(6.768799%, 49.520874%, 79.60968%)" offset="0.363281"/><stop stop-opacity="1" stop-color="rgb(6.842041%, 49.325562%, 79.463196%)" offset="0.367188"/><stop stop-opacity="1" stop-color="rgb(6.913757%, 49.128723%, 79.315186%)" offset="0.371094"/><stop stop-opacity="1" stop-color="rgb(6.987%, 48.931885%, 79.168701%)" offset="0.375"/><stop stop-opacity="1" stop-color="rgb(7.060242%, 48.735046%, 79.020691%)" offset="0.378906"/><stop stop-opacity="1" stop-color="rgb(7.133484%, 48.538208%, 78.874207%)" offset="0.382813"/><stop stop-opacity="1" stop-color="rgb(7.2052%, 48.34137%, 78.726196%)" offset="0.386719"/><stop stop-opacity="1" stop-color="rgb(7.278442%, 48.146057%, 78.579712%)" offset="0.390625"/><stop stop-opacity="1" stop-color="rgb(7.350159%, 47.949219%, 78.431702%)" offset="0.394531"/><stop stop-opacity="1" stop-color="rgb(7.423401%, 47.75238%, 78.285217%)" offset="0.398438"/><stop stop-opacity="1" stop-color="rgb(7.496643%, 47.555542%, 78.137207%)" offset="0.402344"/><stop stop-opacity="1" stop-color="rgb(7.569885%, 47.360229%, 77.990723%)" offset="0.40625"/><stop stop-opacity="1" stop-color="rgb(7.641602%, 47.163391%, 77.842712%)" offset="0.410156"/><stop stop-opacity="1" stop-color="rgb(7.714844%, 46.966553%, 77.696228%)" offset="0.414063"/><stop stop-opacity="1" stop-color="rgb(7.788086%, 46.769714%, 77.548218%)" offset="0.417969"/><stop stop-opacity="1" stop-color="rgb(7.861328%, 46.572876%, 77.401733%)" offset="0.421875"/><stop stop-opacity="1" stop-color="rgb(7.933044%, 46.376038%, 77.253723%)" offset="0.425781"/><stop stop-opacity="1" stop-color="rgb(8.006287%, 46.180725%, 77.107239%)" offset="0.429688"/><stop stop-opacity="1" stop-color="rgb(8.078003%, 45.983887%, 76.959229%)" offset="0.433594"/><stop stop-opacity="1" stop-color="rgb(8.151245%, 45.787048%, 76.812744%)" offset="0.4375"/><stop stop-opacity="1" stop-color="rgb(8.224487%, 45.59021%, 76.664734%)" offset="0.441406"/><stop stop-opacity="1" stop-color="rgb(8.297729%, 45.394897%, 76.51825%)" offset="0.445313"/><stop stop-opacity="1" stop-color="rgb(8.369446%, 45.198059%, 76.370239%)" offset="0.449219"/><stop stop-opacity="1" stop-color="rgb(8.442688%, 45.001221%, 76.223755%)" offset="0.453125"/><stop stop-opacity="1" stop-color="rgb(8.51593%, 44.804382%, 76.075745%)" offset="0.457031"/><stop stop-opacity="1" stop-color="rgb(8.589172%, 44.607544%, 75.92926%)" offset="0.460938"/><stop stop-opacity="1" stop-color="rgb(8.660889%, 44.410706%, 75.78125%)" offset="0.464844"/><stop stop-opacity="1" stop-color="rgb(8.734131%, 44.215393%, 75.634766%)" offset="0.46875"/><stop stop-opacity="1" stop-color="rgb(8.805847%, 44.018555%, 75.486755%)" offset="0.472656"/><stop stop-opacity="1" stop-color="rgb(8.879089%, 43.821716%, 75.340271%)" offset="0.476563"/><stop stop-opacity="1" stop-color="rgb(8.952332%, 43.624878%, 75.193787%)" offset="0.480469"/><stop stop-opacity="1" stop-color="rgb(9.025574%, 43.429565%, 75.047302%)" offset="0.484375"/><stop stop-opacity="1" stop-color="rgb(9.09729%, 43.232727%, 74.899292%)" offset="0.488281"/><stop stop-opacity="1" stop-color="rgb(9.170532%, 43.035889%, 74.752808%)" offset="0.492188"/><stop stop-opacity="1" stop-color="rgb(9.243774%, 42.83905%, 74.604797%)" offset="0.496094"/><stop stop-opacity="1" stop-color="rgb(9.317017%, 42.642212%, 74.458313%)" offset="0.5"/><stop stop-opacity="1" stop-color="rgb(9.388733%, 42.445374%, 74.310303%)" offset="0.503906"/><stop stop-opacity="1" stop-color="rgb(9.461975%, 42.250061%, 74.163818%)" offset="0.507812"/><stop stop-opacity="1" stop-color="rgb(9.533691%, 42.053223%, 74.015808%)" offset="0.511719"/><stop stop-opacity="1" stop-color="rgb(9.606934%, 41.856384%, 73.869324%)" offset="0.515625"/><stop stop-opacity="1" stop-color="rgb(9.680176%, 41.659546%, 73.721313%)" offset="0.519531"/><stop stop-opacity="1" stop-color="rgb(9.753418%, 41.464233%, 73.574829%)" offset="0.523438"/><stop stop-opacity="1" stop-color="rgb(9.825134%, 41.267395%, 73.426819%)" offset="0.527344"/><stop stop-opacity="1" stop-color="rgb(9.898376%, 41.070557%, 73.280334%)" offset="0.53125"/><stop stop-opacity="1" stop-color="rgb(9.971619%, 40.873718%, 73.132324%)" offset="0.535156"/><stop stop-opacity="1" stop-color="rgb(10.044861%, 40.67688%, 72.98584%)" offset="0.539063"/><stop stop-opacity="1" stop-color="rgb(10.116577%, 40.480042%, 72.83783%)" offset="0.542969"/><stop stop-opacity="1" stop-color="rgb(10.189819%, 40.284729%, 72.691345%)" offset="0.546875"/><stop stop-opacity="1" stop-color="rgb(10.261536%, 40.087891%, 72.543335%)" offset="0.550781"/><stop stop-opacity="1" stop-color="rgb(10.334778%, 39.891052%, 72.396851%)" offset="0.554688"/><stop stop-opacity="1" stop-color="rgb(10.40802%, 39.694214%, 72.24884%)" offset="0.558594"/><stop stop-opacity="1" stop-color="rgb(10.481262%, 39.498901%, 72.102356%)" offset="0.5625"/><stop stop-opacity="1" stop-color="rgb(10.552979%, 39.302063%, 71.954346%)" offset="0.566406"/><stop stop-opacity="1" stop-color="rgb(10.626221%, 39.105225%, 71.807861%)" offset="0.570313"/><stop stop-opacity="1" stop-color="rgb(10.699463%, 38.908386%, 71.659851%)" offset="0.574219"/><stop stop-opacity="1" stop-color="rgb(10.772705%, 38.711548%, 71.513367%)" offset="0.578125"/><stop stop-opacity="1" stop-color="rgb(10.844421%, 38.514709%, 71.365356%)" offset="0.582031"/><stop stop-opacity="1" stop-color="rgb(10.917664%, 38.319397%, 71.218872%)" offset="0.585938"/><stop stop-opacity="1" stop-color="rgb(10.990906%, 38.122559%, 71.070862%)" offset="0.589844"/><stop stop-opacity="1" stop-color="rgb(11.064148%, 37.92572%, 70.924377%)" offset="0.59375"/><stop stop-opacity="1" stop-color="rgb(11.135864%, 37.728882%, 70.776367%)" offset="0.597656"/><stop stop-opacity="1" stop-color="rgb(11.209106%, 37.533569%, 70.629883%)" offset="0.601563"/><stop stop-opacity="1" stop-color="rgb(11.280823%, 37.336731%, 70.483398%)" offset="0.605469"/><stop stop-opacity="1" stop-color="rgb(11.354065%, 37.139893%, 70.336914%)" offset="0.609375"/><stop stop-opacity="1" stop-color="rgb(11.427307%, 36.943054%, 70.188904%)" offset="0.613281"/><stop stop-opacity="1" stop-color="rgb(11.500549%, 36.746216%, 70.042419%)" offset="0.617188"/><stop stop-opacity="1" stop-color="rgb(11.572266%, 36.549377%, 69.894409%)" offset="0.621094"/><stop stop-opacity="1" stop-color="rgb(11.645508%, 36.354065%, 69.747925%)" offset="0.625"/><stop stop-opacity="1" stop-color="rgb(11.71875%, 36.157227%, 69.599915%)" offset="0.628906"/><stop stop-opacity="1" stop-color="rgb(11.791992%, 35.960388%, 69.45343%)" offset="0.632813"/><stop stop-opacity="1" stop-color="rgb(11.863708%, 35.76355%, 69.30542%)" offset="0.636719"/><stop stop-opacity="1" stop-color="rgb(11.936951%, 35.568237%, 69.158936%)" offset="0.640625"/><stop stop-opacity="1" stop-color="rgb(12.008667%, 35.371399%, 69.010925%)" offset="0.644531"/><stop stop-opacity="1" stop-color="rgb(12.081909%, 35.174561%, 68.864441%)" offset="0.648438"/><stop stop-opacity="1" stop-color="rgb(12.155151%, 34.977722%, 68.716431%)" offset="0.652344"/><stop stop-opacity="1" stop-color="rgb(12.228394%, 34.780884%, 68.569946%)" offset="0.65625"/><stop stop-opacity="1" stop-color="rgb(12.30011%, 34.584045%, 68.421936%)" offset="0.660156"/><stop stop-opacity="1" stop-color="rgb(12.373352%, 34.388733%, 68.275452%)" offset="0.664063"/><stop stop-opacity="1" stop-color="rgb(12.446594%, 34.191895%, 68.127441%)" offset="0.667969"/><stop stop-opacity="1" stop-color="rgb(12.519836%, 33.995056%, 67.980957%)" offset="0.671875"/><stop stop-opacity="1" stop-color="rgb(12.591553%, 33.798218%, 67.832947%)" offset="0.675781"/><stop stop-opacity="1" stop-color="rgb(12.664795%, 33.602905%, 67.686462%)" offset="0.679688"/><stop stop-opacity="1" stop-color="rgb(12.736511%, 33.406067%, 67.538452%)" offset="0.683594"/><stop stop-opacity="1" stop-color="rgb(12.809753%, 33.209229%, 67.391968%)" offset="0.6875"/><stop stop-opacity="1" stop-color="rgb(12.882996%, 33.01239%, 67.243958%)" offset="0.691406"/><stop stop-opacity="1" stop-color="rgb(12.956238%, 32.815552%, 67.097473%)" offset="0.695313"/><stop stop-opacity="1" stop-color="rgb(13.027954%, 32.618713%, 66.949463%)" offset="0.699219"/><stop stop-opacity="1" stop-color="rgb(13.101196%, 32.423401%, 66.802979%)" offset="0.703125"/><stop stop-opacity="1" stop-color="rgb(13.174438%, 32.226562%, 66.654968%)" offset="0.707031"/><stop stop-opacity="1" stop-color="rgb(13.247681%, 32.029724%, 66.508484%)" offset="0.710938"/><stop stop-opacity="1" stop-color="rgb(13.319397%, 31.832886%, 66.360474%)" offset="0.714844"/><stop stop-opacity="1" stop-color="rgb(13.392639%, 31.636047%, 66.213989%)" offset="0.71875"/><stop stop-opacity="1" stop-color="rgb(13.464355%, 31.439209%, 66.065979%)" offset="0.722656"/><stop stop-opacity="1" stop-color="rgb(13.537598%, 31.243896%, 65.919495%)" offset="0.726563"/><stop stop-opacity="1" stop-color="rgb(13.61084%, 31.047058%, 65.77301%)" offset="0.730469"/><stop stop-opacity="1" stop-color="rgb(13.684082%, 30.85022%, 65.626526%)" offset="0.734375"/><stop stop-opacity="1" stop-color="rgb(13.755798%, 30.653381%, 65.478516%)" offset="0.738281"/><stop stop-opacity="1" stop-color="rgb(13.829041%, 30.458069%, 65.332031%)" offset="0.742188"/><stop stop-opacity="1" stop-color="rgb(13.902283%, 30.26123%, 65.184021%)" offset="0.746094"/><stop stop-opacity="1" stop-color="rgb(13.975525%, 30.064392%, 65.037537%)" offset="0.75"/><stop stop-opacity="1" stop-color="rgb(14.047241%, 29.867554%, 64.889526%)" offset="0.753906"/><stop stop-opacity="1" stop-color="rgb(14.120483%, 29.670715%, 64.743042%)" offset="0.757813"/><stop stop-opacity="1" stop-color="rgb(14.193726%, 29.473877%, 64.595032%)" offset="0.761719"/><stop stop-opacity="1" stop-color="rgb(14.266968%, 29.278564%, 64.448547%)" offset="0.765625"/><stop stop-opacity="1" stop-color="rgb(14.338684%, 29.081726%, 64.300537%)" offset="0.769531"/><stop stop-opacity="1" stop-color="rgb(14.411926%, 28.884888%, 64.154053%)" offset="0.773438"/><stop stop-opacity="1" stop-color="rgb(14.483643%, 28.688049%, 64.006042%)" offset="0.777344"/><stop stop-opacity="1" stop-color="rgb(14.556885%, 28.492737%, 63.859558%)" offset="0.78125"/><stop stop-opacity="1" stop-color="rgb(14.630127%, 28.295898%, 63.711548%)" offset="0.785156"/><stop stop-opacity="1" stop-color="rgb(14.703369%, 28.09906%, 63.565063%)" offset="0.789063"/><stop stop-opacity="1" stop-color="rgb(14.775085%, 27.902222%, 63.417053%)" offset="0.792969"/><stop stop-opacity="1" stop-color="rgb(14.848328%, 27.705383%, 63.270569%)" offset="0.796875"/><stop stop-opacity="1" stop-color="rgb(14.92157%, 27.508545%, 63.122559%)" offset="0.800781"/><stop stop-opacity="1" stop-color="rgb(14.994812%, 27.313232%, 62.976074%)" offset="0.804688"/><stop stop-opacity="1" stop-color="rgb(15.066528%, 27.116394%, 62.828064%)" offset="0.808594"/><stop stop-opacity="1" stop-color="rgb(15.139771%, 26.919556%, 62.68158%)" offset="0.8125"/><stop stop-opacity="1" stop-color="rgb(15.211487%, 26.722717%, 62.533569%)" offset="0.816406"/><stop stop-opacity="1" stop-color="rgb(15.284729%, 26.527405%, 62.387085%)" offset="0.820313"/><stop stop-opacity="1" stop-color="rgb(15.357971%, 26.330566%, 62.239075%)" offset="0.824219"/><stop stop-opacity="1" stop-color="rgb(15.431213%, 26.133728%, 62.09259%)" offset="0.828125"/><stop stop-opacity="1" stop-color="rgb(15.50293%, 25.93689%, 61.94458%)" offset="0.832031"/><stop stop-opacity="1" stop-color="rgb(15.576172%, 25.740051%, 61.798096%)" offset="0.835937"/><stop stop-opacity="1" stop-color="rgb(15.649414%, 25.543213%, 61.650085%)" offset="0.839844"/><stop stop-opacity="1" stop-color="rgb(15.722656%, 25.3479%, 61.503601%)" offset="0.84375"/><stop stop-opacity="1" stop-color="rgb(15.794373%, 25.151062%, 61.355591%)" offset="0.847656"/><stop stop-opacity="1" stop-color="rgb(15.867615%, 24.954224%, 61.209106%)" offset="0.851562"/><stop stop-opacity="1" stop-color="rgb(15.939331%, 24.757385%, 61.062622%)" offset="0.855469"/><stop stop-opacity="1" stop-color="rgb(16.012573%, 24.562073%, 60.916138%)" offset="0.859375"/><stop stop-opacity="1" stop-color="rgb(16.085815%, 24.365234%, 60.768127%)" offset="0.863281"/><stop stop-opacity="1" stop-color="rgb(16.159058%, 24.168396%, 60.621643%)" offset="0.867188"/><stop stop-opacity="1" stop-color="rgb(16.230774%, 23.971558%, 60.473633%)" offset="0.871094"/><stop stop-opacity="1" stop-color="rgb(16.304016%, 23.774719%, 60.327148%)" offset="0.875"/><stop stop-opacity="1" stop-color="rgb(16.377258%, 23.577881%, 60.179138%)" offset="0.878906"/><stop stop-opacity="1" stop-color="rgb(16.4505%, 23.382568%, 60.032654%)" offset="0.882812"/><stop stop-opacity="1" stop-color="rgb(16.522217%, 23.18573%, 59.884644%)" offset="0.886719"/><stop stop-opacity="1" stop-color="rgb(16.595459%, 22.988892%, 59.738159%)" offset="0.890625"/><stop stop-opacity="1" stop-color="rgb(16.667175%, 22.792053%, 59.590149%)" offset="0.894531"/><stop stop-opacity="1" stop-color="rgb(16.740417%, 22.596741%, 59.443665%)" offset="0.898438"/><stop stop-opacity="1" stop-color="rgb(16.81366%, 22.399902%, 59.295654%)" offset="0.902344"/><stop stop-opacity="1" stop-color="rgb(16.886902%, 22.203064%, 59.14917%)" offset="0.90625"/><stop stop-opacity="1" stop-color="rgb(16.958618%, 22.006226%, 59.00116%)" offset="0.910156"/><stop stop-opacity="1" stop-color="rgb(17.03186%, 21.809387%, 58.854675%)" offset="0.914063"/><stop stop-opacity="1" stop-color="rgb(17.105103%, 21.612549%, 58.706665%)" offset="0.917969"/><stop stop-opacity="1" stop-color="rgb(17.178345%, 21.417236%, 58.560181%)" offset="0.921875"/><stop stop-opacity="1" stop-color="rgb(17.250061%, 21.220398%, 58.41217%)" offset="0.925781"/><stop stop-opacity="1" stop-color="rgb(17.323303%, 21.02356%, 58.265686%)" offset="0.929688"/><stop stop-opacity="1" stop-color="rgb(17.39502%, 20.826721%, 58.117676%)" offset="0.933594"/><stop stop-opacity="1" stop-color="rgb(17.468262%, 20.631409%, 57.971191%)" offset="0.9375"/><stop stop-opacity="1" stop-color="rgb(17.541504%, 20.43457%, 57.823181%)" offset="0.941406"/><stop stop-opacity="1" stop-color="rgb(17.614746%, 20.237732%, 57.676697%)" offset="0.945313"/><stop stop-opacity="1" stop-color="rgb(17.686462%, 20.040894%, 57.528687%)" offset="0.949219"/><stop stop-opacity="1" stop-color="rgb(17.759705%, 19.844055%, 57.382202%)" offset="0.953125"/><stop stop-opacity="1" stop-color="rgb(17.832947%, 19.647217%, 57.234192%)" offset="0.957031"/><stop stop-opacity="1" stop-color="rgb(17.906189%, 19.451904%, 57.087708%)" offset="0.960938"/><stop stop-opacity="1" stop-color="rgb(17.211914%, 18.536377%, 54.653931%)" offset="0.964844"/><stop stop-opacity="1" stop-color="rgb(16.519165%, 17.62085%, 52.220154%)" offset="0.96875"/><stop stop-opacity="1" stop-color="rgb(14.450073%, 15.414429%, 45.681763%)" offset="0.972656"/><stop stop-opacity="1" stop-color="rgb(12.382507%, 13.208008%, 39.144897%)" offset="0.976563"/><stop stop-opacity="1" stop-color="rgb(10.313416%, 11.001587%, 32.606506%)" offset="0.980469"/><stop stop-opacity="1" stop-color="rgb(8.24585%, 8.796692%, 26.069641%)" offset="0.984375"/><stop stop-opacity="1" stop-color="rgb(6.178284%, 6.590271%, 19.53125%)" offset="0.988281"/><stop stop-opacity="1" stop-color="rgb(4.110718%, 4.38385%, 12.994385%)" offset="0.992188"/><stop stop-opacity="1" stop-color="rgb(2.055359%, 2.191162%, 6.497192%)" offset="0.996094"/><stop stop-opacity="1" stop-color="rgb(0%, 0%, 0%)" offset="1"/></linearGradient><clipPath id="b3c9492533"><path d="M 29 2.589844 L 47 2.589844 L 47 42.339844 L 29 42.339844 Z M 29 2.589844 " clip-rule="nonzero"/></clipPath><clipPath id="1fd39e2dd3"><path d="M 48 2.589844 L 55 2.589844 L 55 12 L 48 12 Z M 48 2.589844 " clip-rule="nonzero"/></clipPath><clipPath id="adcadd64cb"><path d="M 56 2.589844 L 66 2.589844 L 66 11 L 56 11 Z M 56 2.589844 " clip-rule="nonzero"/></clipPath><clipPath id="fcd7bbd6a8"><path d="M 67 2.589844 L 74 2.589844 L 74 12 L 67 12 Z M 67 2.589844 " clip-rule="nonzero"/></clipPath><clipPath id="0d15846848"><path d="M 78 33 L 85 33 L 85 42.339844 L 78 42.339844 Z M 78 33 " clip-rule="nonzero"/></clipPath></defs><rect x="-15" width="180" fill="#ffffff" y="-4.5" height="53.999999" fill-opacity="1"/><rect x="-15" width="180" fill="#ffffff" y="-4.5" height="53.999999" fill-opacity="1"/><rect x="-15" width="180" fill="#ffffff" y="-4.5" height="53.999999" fill-opacity="1"/><g clip-path="url(#0c96695e82)"><g clip-path="url(#ef1b324705)"><path fill="url(#8f45d028f1)" d="M 0.25 2.589844 L 0.25 42.339844 L 31.960938 42.339844 L 31.960938 2.589844 Z M 0.25 2.589844 " fill-rule="nonzero"/></g></g><g clip-path="url(#b3c9492533)"><path fill="#2e3191" d="M 46.3125 2.589844 L 46.3125 42.339844 L 36.539062 42.339844 L 29.253906 36.808594 L 44.746094 24.851562 L 29.679688 12.046875 L 41.425781 2.589844 Z M 46.3125 2.589844 " fill-opacity="1" fill-rule="nonzero"/></g><g clip-path="url(#1fd39e2dd3)"><path fill="#2e3191" d="M 49.324219 8.96875 C 49.871094 9.222656 50.6875 9.476562 51.539062 9.476562 C 52.457031 9.476562 52.933594 9.121094 52.933594 8.59375 C 52.933594 8.089844 52.507812 7.800781 51.453125 7.445312 C 49.988281 6.972656 49.019531 6.226562 49.019531 5.042969 C 49.035156 3.640625 50.296875 2.589844 52.390625 2.589844 C 53.394531 2.589844 54.125 2.777344 54.652344 2.996094 L 54.210938 4.484375 C 53.855469 4.332031 53.222656 4.097656 52.355469 4.097656 C 51.488281 4.097656 51.0625 4.453125 51.0625 4.890625 C 51.0625 5.414062 51.554688 5.636719 52.695312 6.042969 C 54.261719 6.582031 54.996094 7.328125 54.996094 8.476562 C 54.996094 9.847656 53.855469 11.015625 51.417969 11.015625 C 50.414062 11.015625 49.410156 10.761719 48.917969 10.507812 Z M 49.324219 8.96875 " fill-opacity="1" fill-rule="nonzero"/></g><g clip-path="url(#adcadd64cb)"><path fill="#2e3191" d="M 63.832031 7.75 C 63.796875 6.769531 63.746094 5.585938 63.746094 4.402344 L 63.710938 4.402344 C 63.4375 5.449219 63.046875 6.632812 62.722656 7.582031 L 61.652344 10.761719 L 60.066406 10.761719 L 59.148438 7.597656 C 58.859375 6.632812 58.554688 5.464844 58.347656 4.402344 L 58.316406 4.402344 C 58.265625 5.5 58.230469 6.769531 58.160156 7.785156 L 57.992188 10.878906 L 56.136719 10.878906 L 56.699219 2.710938 L 59.371094 2.710938 L 60.238281 5.433594 C 60.527344 6.363281 60.78125 7.429688 60.988281 8.394531 L 61.019531 8.394531 C 61.277344 7.445312 61.566406 6.328125 61.855469 5.433594 L 62.808594 2.726562 L 65.414062 2.726562 L 65.90625 10.894531 L 63.949219 10.894531 Z M 63.832031 7.75 " fill-opacity="1" fill-rule="nonzero"/></g><g clip-path="url(#fcd7bbd6a8)"><path fill="#2e3191" d="M 67.503906 8.96875 C 68.050781 9.222656 68.867188 9.476562 69.71875 9.476562 C 70.636719 9.476562 71.132812 9.121094 71.132812 8.59375 C 71.132812 8.089844 70.707031 7.800781 69.652344 7.445312 C 68.1875 6.972656 67.214844 6.226562 67.214844 5.042969 C 67.214844 3.65625 68.476562 2.589844 70.570312 2.589844 C 71.574219 2.589844 72.304688 2.777344 72.832031 2.996094 L 72.390625 4.484375 C 72.035156 4.332031 71.402344 4.097656 70.535156 4.097656 C 69.667969 4.097656 69.242188 4.453125 69.242188 4.890625 C 69.242188 5.414062 69.734375 5.636719 70.875 6.042969 C 72.441406 6.582031 73.175781 7.328125 73.175781 8.476562 C 73.175781 9.847656 72.035156 11.015625 69.597656 11.015625 C 68.59375 11.015625 67.589844 10.761719 67.097656 10.507812 Z M 67.503906 8.96875 " fill-opacity="1" fill-rule="nonzero"/></g><path fill="#2e3191" d="M 51.269531 17.238281 L 51.269531 20.367188 L 54.570312 20.367188 L 54.570312 17.238281 L 56.5625 17.238281 L 56.5625 25.410156 L 54.570312 25.410156 L 54.570312 21.992188 L 51.269531 21.992188 L 51.269531 25.410156 L 49.257812 25.410156 L 49.257812 17.238281 Z M 51.269531 17.238281 " fill-opacity="1" fill-rule="nonzero"/><path fill="#2e3191" d="M 60.339844 17.847656 C 60.339844 18.355469 59.914062 18.761719 59.269531 18.761719 C 58.640625 18.761719 58.214844 18.355469 58.230469 17.847656 C 58.214844 17.308594 58.640625 16.917969 59.285156 16.917969 C 59.914062 16.902344 60.324219 17.308594 60.339844 17.847656 Z M 58.28125 25.410156 L 58.28125 19.488281 L 60.273438 19.488281 L 60.273438 25.410156 Z M 58.28125 25.410156 " fill-opacity="1" fill-rule="nonzero"/><path fill="#2e3191" d="M 67.949219 24.546875 C 67.949219 25.679688 67.695312 26.609375 66.980469 27.21875 C 66.265625 27.777344 65.3125 27.945312 64.375 27.945312 C 63.542969 27.945312 62.640625 27.792969 62.0625 27.488281 L 62.453125 26.101562 C 62.859375 26.324219 63.574219 26.558594 64.308594 26.558594 C 65.261719 26.558594 65.976562 26.085938 65.976562 25.003906 L 65.976562 24.582031 L 65.960938 24.582031 C 65.585938 25.070312 64.953125 25.359375 64.222656 25.359375 C 62.640625 25.359375 61.5 24.175781 61.5 22.464844 C 61.5 20.570312 62.84375 19.355469 64.410156 19.355469 C 65.296875 19.355469 65.839844 19.707031 66.164062 20.183594 L 66.199219 20.183594 L 66.265625 19.472656 L 68 19.472656 C 67.96875 19.84375 67.949219 20.351562 67.949219 21.230469 Z M 65.960938 21.890625 C 65.960938 21.773438 65.941406 21.652344 65.925781 21.550781 C 65.789062 21.0625 65.398438 20.742188 64.851562 20.742188 C 64.136719 20.742188 63.542969 21.351562 63.542969 22.433594 C 63.542969 23.3125 64.019531 24.003906 64.851562 24.003906 C 65.363281 24.003906 65.773438 23.683594 65.90625 23.261719 C 65.960938 23.125 65.976562 22.941406 65.976562 22.769531 L 65.976562 21.890625 Z M 65.960938 21.890625 " fill-opacity="1" fill-rule="nonzero"/><path fill="#2e3191" d="M 69.550781 16.816406 L 71.542969 16.816406 L 71.542969 20.199219 L 71.578125 20.199219 C 71.78125 19.945312 72.054688 19.742188 72.359375 19.589844 C 72.664062 19.4375 73.023438 19.355469 73.398438 19.355469 C 74.675781 19.355469 75.644531 20.164062 75.644531 21.941406 L 75.644531 25.410156 L 73.652344 25.410156 L 73.652344 22.144531 C 73.652344 21.367188 73.363281 20.84375 72.613281 20.84375 C 72.085938 20.84375 71.761719 21.164062 71.609375 21.484375 C 71.558594 21.601562 71.542969 21.753906 71.542969 21.890625 L 71.542969 25.410156 L 69.550781 25.410156 Z M 69.550781 16.816406 " fill-opacity="1" fill-rule="nonzero"/><path fill="#2e3191" d="M 78.777344 23.042969 C 78.84375 23.800781 79.660156 24.175781 80.582031 24.175781 C 81.261719 24.175781 81.804688 24.089844 82.351562 23.9375 L 82.605469 25.1875 C 81.941406 25.425781 81.140625 25.5625 80.273438 25.5625 C 78.09375 25.5625 76.851562 24.394531 76.851562 22.535156 C 76.851562 21.027344 77.855469 19.371094 80.085938 19.371094 C 82.164062 19.371094 82.945312 20.859375 82.945312 22.332031 C 82.945312 22.652344 82.914062 22.921875 82.878906 23.058594 L 78.777344 23.058594 Z M 81.125 21.773438 C 81.125 21.332031 80.921875 20.570312 80 20.570312 C 79.167969 20.570312 78.828125 21.28125 78.777344 21.773438 Z M 81.125 21.773438 " fill-opacity="1" fill-rule="nonzero"/><path fill="#2e3191" d="M 84.175781 21.433594 C 84.175781 20.554688 84.140625 19.996094 84.121094 19.488281 L 85.84375 19.488281 L 85.910156 20.570312 L 85.960938 20.570312 C 86.285156 19.707031 87.085938 19.355469 87.699219 19.355469 C 87.886719 19.355469 87.96875 19.355469 88.125 19.371094 L 88.125 21.113281 C 87.988281 21.078125 87.800781 21.046875 87.578125 21.046875 C 86.847656 21.046875 86.351562 21.417969 86.214844 21.976562 C 86.183594 22.09375 86.183594 22.246094 86.183594 22.382812 L 86.183594 25.390625 L 84.175781 25.390625 Z M 84.175781 21.433594 " fill-opacity="1" fill-rule="nonzero"/><path fill="#2e3191" d="M 97.128906 21.957031 L 93.875 21.957031 L 93.875 23.902344 L 97.519531 23.902344 L 97.519531 25.410156 L 91.882812 25.410156 L 91.882812 17.238281 L 97.347656 17.238281 L 97.347656 18.761719 L 93.875 18.761719 L 93.875 20.453125 L 97.128906 20.453125 Z M 97.128906 21.957031 " fill-opacity="1" fill-rule="nonzero"/><path fill="#2e3191" d="M 104.976562 16.816406 L 104.976562 23.648438 C 104.976562 24.308594 105.007812 25.019531 105.027344 25.425781 L 103.257812 25.425781 L 103.171875 24.546875 L 103.136719 24.546875 C 102.730469 25.207031 101.960938 25.542969 101.128906 25.542969 C 99.613281 25.542969 98.386719 24.34375 98.386719 22.5 C 98.371094 20.503906 99.734375 19.355469 101.265625 19.355469 C 102.046875 19.355469 102.660156 19.605469 102.949219 20.011719 L 102.984375 20.011719 L 102.984375 16.800781 L 104.976562 16.800781 Z M 102.984375 21.992188 C 102.984375 21.890625 102.96875 21.753906 102.949219 21.671875 C 102.832031 21.179688 102.40625 20.757812 101.773438 20.757812 C 100.871094 20.757812 100.394531 21.5 100.394531 22.449219 C 100.394531 23.445312 100.941406 24.089844 101.757812 24.089844 C 102.335938 24.089844 102.796875 23.734375 102.914062 23.210938 C 102.949219 23.074219 102.96875 22.941406 102.96875 22.789062 L 102.96875 21.992188 Z M 102.984375 21.992188 " fill-opacity="1" fill-rule="nonzero"/><path fill="#2e3191" d="M 110.949219 25.410156 L 110.863281 24.582031 L 110.828125 24.582031 C 110.539062 24.984375 109.945312 25.542969 108.820312 25.542969 C 107.527344 25.542969 106.558594 24.835938 106.558594 22.957031 L 106.558594 19.488281 L 108.566406 19.488281 L 108.566406 22.667969 C 108.566406 23.496094 108.835938 24.054688 109.570312 24.054688 C 110.113281 24.054688 110.4375 23.71875 110.574219 23.414062 C 110.609375 23.3125 110.640625 23.175781 110.640625 23.007812 L 110.640625 19.488281 L 112.652344 19.488281 L 112.652344 23.515625 C 112.652344 24.292969 112.683594 24.917969 112.703125 25.410156 Z M 110.949219 25.410156 " fill-opacity="1" fill-rule="nonzero"/><path fill="#2e3191" d="M 119.054688 25.273438 C 118.695312 25.425781 118.03125 25.542969 117.265625 25.542969 C 115.191406 25.542969 113.863281 24.378906 113.863281 22.5 C 113.863281 20.773438 115.15625 19.355469 117.539062 19.355469 C 118.066406 19.355469 118.644531 19.4375 119.054688 19.589844 L 118.730469 20.960938 C 118.492188 20.859375 118.136719 20.773438 117.625 20.773438 C 116.566406 20.773438 115.886719 21.46875 115.90625 22.433594 C 115.90625 23.515625 116.6875 24.089844 117.65625 24.089844 C 118.136719 24.089844 118.492188 24.023438 118.796875 23.902344 Z M 119.054688 25.273438 " fill-opacity="1" fill-rule="nonzero"/><path fill="#2e3191" d="M 125.558594 23.972656 C 125.558594 24.546875 125.59375 25.085938 125.644531 25.410156 L 123.839844 25.410156 L 123.71875 24.816406 L 123.6875 24.816406 C 123.261719 25.289062 122.613281 25.542969 121.847656 25.542969 C 120.554688 25.542969 119.769531 24.664062 119.769531 23.734375 C 119.769531 22.195312 121.269531 21.449219 123.53125 21.46875 L 123.53125 21.382812 C 123.53125 21.0625 123.34375 20.621094 122.359375 20.621094 C 121.695312 20.621094 121.011719 20.824219 120.589844 21.0625 L 120.214844 19.878906 C 120.65625 19.640625 121.542969 19.355469 122.699219 19.355469 C 124.84375 19.355469 125.523438 20.519531 125.523438 21.90625 L 125.523438 23.972656 Z M 123.617188 22.617188 C 122.5625 22.601562 121.761719 22.839844 121.761719 23.546875 C 121.761719 24.023438 122.101562 24.257812 122.546875 24.257812 C 123.039062 24.257812 123.449219 23.953125 123.585938 23.582031 C 123.617188 23.480469 123.617188 23.378906 123.617188 23.261719 Z M 123.617188 22.617188 " fill-opacity="1" fill-rule="nonzero"/><path fill="#2e3191" d="M 129.269531 17.796875 L 129.269531 19.488281 L 130.699219 19.488281 L 130.699219 20.84375 L 129.269531 20.84375 L 129.269531 22.992188 C 129.269531 23.699219 129.457031 24.039062 130.050781 24.039062 C 130.308594 24.039062 130.496094 24.023438 130.648438 23.988281 L 130.664062 25.375 C 130.410156 25.476562 129.933594 25.542969 129.371094 25.542969 C 128.726562 25.542969 128.199219 25.324219 127.875 25.019531 C 127.5 24.664062 127.328125 24.105469 127.328125 23.261719 L 127.328125 20.84375 L 126.476562 20.84375 L 126.476562 19.488281 L 127.328125 19.488281 L 127.328125 18.203125 Z M 129.269531 17.796875 " fill-opacity="1" fill-rule="nonzero"/><path fill="#2e3191" d="M 133.917969 17.847656 C 133.917969 18.355469 133.492188 18.761719 132.84375 18.761719 C 132.214844 18.761719 131.789062 18.355469 131.808594 17.847656 C 131.789062 17.308594 132.214844 16.917969 132.863281 16.917969 C 133.492188 16.902344 133.902344 17.308594 133.917969 17.847656 Z M 131.859375 25.410156 L 131.859375 19.488281 L 133.851562 19.488281 L 133.851562 25.410156 Z M 131.859375 25.410156 " fill-opacity="1" fill-rule="nonzero"/><path fill="#2e3191" d="M 141.78125 22.449219 C 141.78125 24.664062 139.945312 25.542969 138.34375 25.542969 C 136.523438 25.542969 135.074219 24.394531 135.074219 22.449219 C 135.074219 20.453125 136.609375 19.355469 138.496094 19.355469 C 140.4375 19.355469 141.78125 20.539062 141.78125 22.449219 Z M 137.136719 22.464844 C 137.136719 23.414062 137.542969 24.226562 138.429688 24.226562 C 139.316406 24.226562 139.707031 23.429688 139.707031 22.464844 C 139.707031 21.621094 139.398438 20.65625 138.429688 20.65625 C 137.457031 20.65625 137.136719 21.636719 137.136719 22.464844 Z M 137.136719 22.464844 " fill-opacity="1" fill-rule="nonzero"/><path fill="#2e3191" d="M 143.027344 21.382812 C 143.027344 20.640625 142.992188 20.011719 142.976562 19.488281 L 144.710938 19.488281 L 144.796875 20.300781 L 144.832031 20.300781 C 145.085938 19.929688 145.75 19.355469 146.804688 19.355469 C 148.117188 19.355469 149.101562 20.148438 149.101562 21.890625 L 149.101562 25.410156 L 147.113281 25.410156 L 147.113281 22.128906 C 147.113281 21.367188 146.824219 20.84375 146.109375 20.84375 C 145.5625 20.84375 145.222656 21.199219 145.101562 21.535156 C 145.050781 21.652344 145.019531 21.824219 145.019531 21.992188 L 145.019531 25.410156 L 143.027344 25.410156 Z M 143.027344 21.382812 " fill-opacity="1" fill-rule="nonzero"/><path fill="#2e3191" d="M 56.648438 39.566406 C 56.035156 39.753906 54.859375 40.023438 53.703125 40.023438 C 52.085938 40.023438 50.929688 39.652344 50.113281 38.925781 C 49.292969 38.214844 48.851562 37.148438 48.871094 35.964844 C 48.886719 33.257812 51.015625 31.703125 53.925781 31.703125 C 55.066406 31.703125 55.949219 31.90625 56.375 32.105469 L 55.949219 33.578125 C 55.472656 33.394531 54.859375 33.222656 53.890625 33.222656 C 52.222656 33.222656 50.964844 34.101562 50.964844 35.863281 C 50.964844 37.554688 52.101562 38.535156 53.738281 38.535156 C 54.199219 38.535156 54.570312 38.484375 54.726562 38.417969 L 54.726562 36.707031 L 53.363281 36.707031 L 53.363281 35.269531 L 56.664062 35.269531 L 56.664062 39.566406 Z M 56.648438 39.566406 " fill-opacity="1" fill-rule="nonzero"/><path fill="#2e3191" d="M 58.175781 35.980469 C 58.175781 35.101562 58.144531 34.542969 58.125 34.035156 L 59.84375 34.035156 L 59.914062 35.117188 L 59.964844 35.117188 C 60.289062 34.253906 61.089844 33.898438 61.699219 33.898438 C 61.886719 33.898438 61.972656 33.898438 62.125 33.917969 L 62.125 35.660156 C 61.992188 35.625 61.820312 35.59375 61.582031 35.59375 C 60.851562 35.59375 60.339844 35.945312 60.21875 36.523438 C 60.1875 36.640625 60.1875 36.792969 60.1875 36.929688 L 60.1875 39.9375 L 58.195312 39.9375 L 58.195312 35.980469 Z M 58.175781 35.980469 " fill-opacity="1" fill-rule="nonzero"/><path fill="#2e3191" d="M 69.398438 36.980469 C 69.398438 39.195312 67.558594 40.074219 65.960938 40.074219 C 64.136719 40.074219 62.691406 38.925781 62.691406 36.980469 C 62.691406 34.984375 64.222656 33.882812 66.113281 33.882812 C 68.054688 33.882812 69.398438 35.066406 69.398438 36.980469 Z M 64.769531 36.996094 C 64.769531 37.941406 65.175781 38.753906 66.0625 38.753906 C 66.945312 38.753906 67.355469 37.960938 67.355469 36.996094 C 67.355469 36.148438 67.050781 35.1875 66.0625 35.1875 C 65.074219 35.203125 64.769531 36.167969 64.769531 36.996094 Z M 64.769531 36.996094 " fill-opacity="1" fill-rule="nonzero"/><path fill="#2e3191" d="M 75.015625 39.9375 L 74.933594 39.109375 L 74.898438 39.109375 C 74.609375 39.515625 74.011719 40.074219 72.890625 40.074219 C 71.59375 40.074219 70.625 39.363281 70.625 37.488281 L 70.625 34.003906 L 72.632812 34.003906 L 72.632812 37.183594 C 72.632812 38.011719 72.90625 38.570312 73.636719 38.570312 C 74.183594 38.570312 74.507812 38.230469 74.644531 37.925781 C 74.675781 37.824219 74.710938 37.6875 74.710938 37.519531 L 74.710938 34.003906 L 76.683594 34.003906 L 76.683594 38.027344 C 76.683594 38.804688 76.71875 39.433594 76.738281 39.921875 L 75.015625 39.921875 Z M 75.015625 39.9375 " fill-opacity="1" fill-rule="nonzero"/><g clip-path="url(#0d15846848)"><path fill="#2e3191" d="M 78.285156 36.015625 C 78.285156 35.238281 78.25 34.578125 78.234375 34.035156 L 79.972656 34.035156 L 80.054688 34.863281 L 80.089844 34.863281 C 80.566406 34.238281 81.296875 33.902344 82.234375 33.902344 C 83.628906 33.902344 84.890625 35.035156 84.890625 36.910156 C 84.890625 39.058594 83.410156 40.089844 81.980469 40.089844 C 81.195312 40.089844 80.601562 39.804688 80.3125 39.414062 L 80.277344 39.414062 L 80.277344 42.339844 L 78.285156 42.339844 Z M 80.292969 37.402344 C 80.292969 37.554688 80.3125 37.671875 80.328125 37.789062 C 80.464844 38.28125 80.925781 38.671875 81.503906 38.671875 C 82.371094 38.671875 82.882812 38.011719 82.882812 36.996094 C 82.882812 36.046875 82.421875 35.339844 81.535156 35.339844 C 80.976562 35.339844 80.480469 35.726562 80.34375 36.269531 C 80.3125 36.371094 80.3125 36.488281 80.3125 36.589844 L 80.3125 37.402344 Z M 80.292969 37.402344 " fill-opacity="1" fill-rule="nonzero"/></g></svg>